<?xml version="1.0" encoding="UTF-8" standalone="no"?><!DOCTYPE svg PUBLIC "-//W3C//DTD SVG 1.1//EN" "http://www.w3.org/Graphics/SVG/1.1/DTD/svg11.dtd"><svg width="100%" height="100%" viewBox="0 0 883 196" version="1.1" xmlns="http://www.w3.org/2000/svg" xmlns:xlink="http://www.w3.org/1999/xlink" xml:space="preserve" xmlns:serif="http://www.serif.com/" style="fill-rule:evenodd;clip-rule:evenodd;stroke-linejoin:round;stroke-miterlimit:2;"><g><path d="M216.614,147.308L216.614,58.235L227.053,58.235L285.887,131.378L280.51,131.378L280.51,58.235L293.156,58.235L293.156,147.308L282.719,147.308L223.885,74.165L229.262,74.165L229.262,147.308L216.614,147.308Z" style="fill:#1e3c72;fill-rule:nonzero;"/><path d="M348.198,148.012C340.975,148.012 334.635,146.537 329.178,143.588C323.721,140.639 319.482,136.569 316.46,131.378C313.439,126.187 311.928,120.261 311.928,113.599C311.928,106.924 313.387,100.998 316.303,95.82C319.22,90.642 323.241,86.578 328.365,83.629C333.49,80.679 339.295,79.205 345.78,79.205C352.265,79.205 358.015,80.655 363.032,83.555C368.05,86.455 371.985,90.509 374.836,95.717C377.687,100.924 379.113,106.994 379.113,113.929C379.113,114.444 379.095,115.048 379.059,115.743C379.024,116.436 378.97,117.083 378.898,117.683L321.496,117.683L321.496,108.818L372.448,108.818L367.561,111.907C367.633,107.572 366.725,103.722 364.837,100.36C362.951,96.997 360.374,94.359 357.105,92.446C353.838,90.532 350.063,89.575 345.78,89.575C341.511,89.575 337.721,90.532 334.409,92.446C331.1,94.359 328.522,97.015 326.677,100.413C324.833,103.812 323.912,107.75 323.912,112.229L323.912,114.243C323.912,118.762 324.94,122.763 326.995,126.246C329.053,129.73 331.941,132.446 335.662,134.396C339.384,136.345 343.67,137.319 348.52,137.319C352.502,137.319 356.142,136.65 359.441,135.313C362.742,133.974 365.6,131.93 368.015,129.181L374.739,137.088C371.711,140.651 367.933,143.362 363.404,145.222C358.876,147.082 353.807,148.012 348.198,148.012Z" style="fill:#1e3c72;fill-rule:nonzero;"/><path d="M384.372,147.308L413.37,109.581L413.243,115.844L385.577,79.909L399.182,79.909L420.291,107.654L415.082,107.547L436.189,79.909L449.56,79.909L421.639,116.138L421.767,109.668L450.932,147.308L437.092,147.308L414.798,117.848L419.84,118.494L397.977,147.308L384.372,147.308Z" style="fill:#1e3c72;fill-rule:nonzero;"/><path d="M466.146,147.308L466.146,58.235L506.124,58.235C516.359,58.235 524.242,60.283 529.772,64.38C535.302,68.478 538.067,74.115 538.067,81.294C538.067,86.071 536.968,90.129 534.772,93.466C532.577,96.804 529.663,99.35 526.03,101.105C522.398,102.86 518.469,103.738 514.243,103.738L516.514,99.934C521.595,99.934 526.099,100.822 530.028,102.598C533.958,104.373 537.051,106.993 539.305,110.458C541.56,113.923 542.687,118.193 542.687,123.27C542.687,130.878 539.839,136.787 534.144,140.995C528.448,145.204 519.956,147.308 508.668,147.308L466.146,147.308ZM478.793,136.937L508.102,136.937C515.167,136.937 520.571,135.763 524.316,133.416C528.062,131.069 529.935,127.328 529.935,122.194C529.935,117.062 528.062,113.308 524.316,110.931C520.571,108.553 515.167,107.364 508.102,107.364L477.728,107.364L477.728,96.993L504.913,96.993C511.389,96.993 516.408,95.816 519.97,93.462C523.533,91.108 525.314,87.554 525.314,82.799C525.314,78.045 523.533,74.491 519.97,72.137C516.408,69.782 511.389,68.605 504.913,68.605L478.793,68.605L478.793,136.937Z" style="fill:#1e3c72;fill-rule:nonzero;"/><path d="M589.083,148.012C583.268,148.012 578.185,146.955 573.833,144.84C569.481,142.726 566.099,139.49 563.685,135.132C561.271,130.774 560.064,125.303 560.064,118.719L560.064,79.909L572.28,79.909L572.28,117.323C572.28,123.891 573.863,128.83 577.03,132.14C580.198,135.449 584.674,137.104 590.459,137.104C594.683,137.104 598.358,136.243 601.485,134.519C604.613,132.795 607.041,130.26 608.768,126.914C610.495,123.568 611.359,119.496 611.359,114.699L611.359,79.909L623.575,79.909L623.575,147.308L611.896,147.308L611.896,129.159L613.87,133.947C611.645,138.412 608.331,141.873 603.929,144.329C599.528,146.784 594.58,148.012 589.083,148.012Z" style="fill:#1e3c72;fill-rule:nonzero;"/><path d="M674.696,148.012C668.172,148.012 662.331,146.573 657.174,143.695C652.016,140.818 647.966,136.801 645.022,131.646C642.079,126.492 640.608,120.476 640.608,113.599C640.608,106.708 642.079,100.692 645.022,95.55C647.966,90.408 652.016,86.399 657.174,83.521C662.331,80.644 668.172,79.205 674.696,79.205C680.361,79.205 685.498,80.482 690.105,83.038C694.712,85.594 698.395,89.406 701.152,94.476C703.909,99.546 705.287,105.921 705.287,113.599C705.287,121.192 703.944,127.548 701.259,132.668C698.574,137.787 694.927,141.625 690.32,144.18C685.712,146.735 680.504,148.012 674.696,148.012ZM675.664,137.319C679.974,137.319 683.835,136.345 687.25,134.396C690.664,132.446 693.376,129.676 695.384,126.085C697.392,122.495 698.396,118.333 698.396,113.599C698.396,108.781 697.392,104.598 695.384,101.049C693.376,97.5 690.664,94.754 687.25,92.812C683.835,90.869 679.974,89.897 675.664,89.897C671.355,89.897 667.496,90.869 664.087,92.812C660.679,94.754 657.968,97.5 655.953,101.049C653.94,104.598 652.933,108.781 652.933,113.599C652.933,118.333 653.94,122.495 655.953,126.085C657.968,129.676 660.679,132.446 664.087,134.396C667.496,136.345 671.355,137.319 675.664,137.319ZM698.718,147.308L698.718,129.149L699.454,113.472L698.181,97.795L698.181,52.89L710.397,52.89L710.397,147.308L698.718,147.308Z" style="fill:#1e3c72;fill-rule:nonzero;"/><path d="M763.125,172.698C756.972,172.698 750.985,171.847 745.165,170.147C739.346,168.446 734.581,165.971 730.87,162.723L736.841,153.31C739.947,155.974 743.798,158.089 748.392,159.655C752.986,161.221 757.754,162.005 762.696,162.005C770.692,162.005 776.565,160.15 780.315,156.442C784.066,152.734 785.942,147.078 785.942,139.472L785.942,125.119L787.214,111.788L786.479,98.351L786.479,79.909L798.158,79.909L798.158,138.122C798.158,150.016 795.186,158.751 789.242,164.329C783.3,169.908 774.594,172.698 763.125,172.698ZM761.646,144.5C755.108,144.5 749.258,143.122 744.094,140.365C738.929,137.608 734.854,133.776 731.868,128.869C728.883,123.962 727.39,118.268 727.39,111.788C727.39,105.296 728.883,99.599 731.868,94.699C734.854,89.799 738.929,85.991 744.094,83.277C749.258,80.562 755.108,79.205 761.646,79.205C767.409,79.205 772.651,80.383 777.373,82.74C782.094,85.097 785.887,88.689 788.751,93.518C791.616,98.347 793.048,104.437 793.048,111.788C793.048,119.127 791.616,125.214 788.751,130.05C785.887,134.885 782.094,138.503 777.373,140.902C772.651,143.301 767.409,144.5 761.646,144.5ZM762.936,133.808C767.487,133.808 771.505,132.879 774.991,131.022C778.478,129.164 781.211,126.578 783.188,123.264C785.167,119.949 786.157,116.124 786.157,111.788C786.157,107.439 785.167,103.614 783.188,100.314C781.211,97.013 778.478,94.452 774.991,92.631C771.505,90.809 767.487,89.897 762.936,89.897C758.471,89.897 754.473,90.809 750.943,92.631C747.415,94.452 744.661,97.013 742.682,100.314C740.704,103.614 739.716,107.439 739.716,111.788C739.716,116.124 740.704,119.949 742.682,123.264C744.661,126.578 747.415,129.164 750.943,131.022C754.473,132.879 758.471,133.808 762.936,133.808Z" style="fill:#1e3c72;fill-rule:nonzero;"/><path d="M851.46,148.012C844.238,148.012 837.898,146.537 832.441,143.588C826.984,140.639 822.744,136.569 819.722,131.378C816.701,126.187 815.191,120.261 815.191,113.599C815.191,106.924 816.649,100.998 819.565,95.82C822.482,90.642 826.503,86.578 831.628,83.629C836.752,80.679 842.557,79.205 849.043,79.205C855.527,79.205 861.278,80.655 866.295,83.555C871.313,86.455 875.248,90.509 878.099,95.717C880.95,100.924 882.375,106.994 882.375,113.929C882.375,114.444 882.358,115.048 882.322,115.743C882.286,116.436 882.232,117.083 882.161,117.683L824.758,117.683L824.758,108.818L875.711,108.818L870.824,111.907C870.895,107.572 869.987,103.722 868.1,100.36C866.214,96.997 863.636,94.359 860.368,92.446C857.1,90.532 853.325,89.575 849.043,89.575C844.773,89.575 840.983,90.532 837.672,92.446C834.362,94.359 831.785,97.015 829.94,100.413C828.096,103.812 827.174,107.75 827.174,112.229L827.174,114.243C827.174,118.762 828.202,122.763 830.258,126.246C832.315,129.73 835.204,132.446 838.925,134.396C842.647,136.345 846.932,137.319 851.782,137.319C855.764,137.319 859.405,136.65 862.704,135.313C866.004,133.974 868.862,131.93 871.277,129.181L878.001,137.088C874.974,140.651 871.196,143.362 866.666,145.222C862.139,147.082 857.07,148.012 851.46,148.012Z" style="fill:#1e3c72;fill-rule:nonzero;"/><g><path d="M122.042,169.821L122.042,94.271C130.742,89.88 138.108,83.226 143.364,75.083L144.042,75.083L144.042,158.028C137.471,163.088 130.054,167.103 122.042,169.821Z" style="fill:#1e3c72;"/><path d="M87.008,173.124L87.008,99.064C90.416,99.733 93.938,100.083 97.542,100.083C101.474,100.083 105.31,99.666 109.008,98.873L109.008,172.989C105.267,173.553 101.438,173.846 97.542,173.846C93.968,173.846 90.451,173.6 87.008,173.124Z" style="fill:#1e3c72;"/><path d="M51.974,158.734L51.974,123.583L73.974,123.583L73.974,170.131C65.982,167.535 58.568,163.655 51.974,158.734Z" style="fill:#1e3c72;"/><path d="M182.438,49.506C190.486,63.689 195.083,80.083 195.083,97.542C195.083,151.376 151.376,195.083 97.542,195.083C43.707,195.083 0,151.376 0,97.542C0,43.707 43.707,0 97.542,0C116.063,0 133.385,5.173 148.142,14.153L142.283,20.012C129.117,12.392 113.835,8.029 97.542,8.029C48.138,8.029 8.029,48.138 8.029,97.542C8.029,146.945 48.138,187.054 97.542,187.054C146.945,187.054 187.054,146.945 187.054,97.542C187.054,82.317 183.244,67.974 176.528,55.417L182.438,49.506Z" style="fill:#1e3c72;"/><g><circle cx="58.542" cy="95.583" r="11.5" style="fill:#1e3c72;"/><circle cx="100.84" cy="56.33" r="8" style="fill:#1e3c72;"/><circle cx="123.852" cy="73.563" r="6.5" style="fill:#1e3c72;"/><circle cx="159.265" cy="36.83" r="11.5" style="fill:#1e3c72;"/><path d="M58.875,96.986C59.662,97.76 59.672,99.027 58.898,99.814L29.739,129.45C28.965,130.237 27.698,130.247 26.911,129.473C26.124,128.698 26.114,127.431 26.888,126.644L56.046,97.009C56.821,96.222 58.088,96.212 58.875,96.986Z" style="fill:#1e3c72;"/><path d="M102.308,57.637C103.095,58.411 103.105,59.679 102.331,60.465L68.182,95.173C67.408,95.96 66.14,95.97 65.353,95.196C64.567,94.422 64.556,93.155 65.33,92.368L99.48,57.66C100.254,56.873 101.521,56.863 102.308,57.637Z" style="fill:#1e3c72;"/><path d="M124.009,72.583L122.896,74.245L101.468,59.896L102.58,58.234L124.009,72.583Z" style="fill:#1e3c72;"/><path d="M155.214,40.792C155.875,41.434 155.891,42.492 155.248,43.153L127.568,71.643C126.926,72.304 125.867,72.319 125.207,71.677C124.546,71.034 124.53,69.976 125.173,69.315L152.853,40.826C153.496,40.165 154.554,40.15 155.214,40.792Z" style="fill:#1e3c72;"/></g></g></g></svg>