<?xml version="1.0" encoding="UTF-8" standalone="no"?><!DOCTYPE svg PUBLIC "-//W3C//DTD SVG 1.1//EN" "http://www.w3.org/Graphics/SVG/1.1/DTD/svg11.dtd"><svg width="100%" height="100%" viewBox="0 0 196 196" version="1.1" xmlns="http://www.w3.org/2000/svg" xmlns:xlink="http://www.w3.org/1999/xlink" xml:space="preserve" xmlns:serif="http://www.serif.com/" style="fill-rule:evenodd;clip-rule:evenodd;stroke-linejoin:round;stroke-miterlimit:2;"><g><path d="M122.042,169.821L122.042,94.271C130.742,89.88 138.108,83.226 143.364,75.083L144.042,75.083L144.042,158.028C137.471,163.088 130.054,167.103 122.042,169.821Z" style="fill:#fff;"/><path d="M87.008,173.124L87.008,99.064C90.416,99.733 93.938,100.083 97.542,100.083C101.474,100.083 105.31,99.666 109.008,98.873L109.008,172.989C105.267,173.553 101.438,173.846 97.542,173.846C93.968,173.846 90.451,173.6 87.008,173.124Z" style="fill:#fff;"/><path d="M51.974,158.734L51.974,123.583L73.974,123.583L73.974,170.131C65.982,167.535 58.568,163.655 51.974,158.734Z" style="fill:#fff;"/><path d="M182.438,49.506C190.486,63.689 195.083,80.083 195.083,97.542C195.083,151.376 151.376,195.083 97.542,195.083C43.707,195.083 0,151.376 0,97.542C0,43.707 43.707,0 97.542,0C116.063,0 133.385,5.173 148.142,14.153L142.283,20.012C129.117,12.392 113.835,8.029 97.542,8.029C48.138,8.029 8.029,48.138 8.029,97.542C8.029,146.945 48.138,187.054 97.542,187.054C146.945,187.054 187.054,146.945 187.054,97.542C187.054,82.317 183.244,67.974 176.528,55.417L182.438,49.506Z" style="fill:#fff;"/><g><circle cx="58.542" cy="95.583" r="11.5" style="fill:#fff;"/><circle cx="100.84" cy="56.33" r="8" style="fill:#fff;"/><circle cx="123.852" cy="73.563" r="6.5" style="fill:#fff;"/><circle cx="159.265" cy="36.83" r="11.5" style="fill:#fff;"/><path d="M58.875,96.986C59.662,97.76 59.672,99.027 58.898,99.814L29.739,129.45C28.965,130.237 27.698,130.247 26.911,129.473C26.124,128.698 26.114,127.431 26.888,126.644L56.046,97.009C56.821,96.222 58.088,96.212 58.875,96.986Z" style="fill:#fff;"/><path d="M102.308,57.637C103.095,58.411 103.105,59.679 102.331,60.465L68.182,95.173C67.408,95.96 66.14,95.97 65.353,95.196C64.567,94.422 64.556,93.155 65.33,92.368L99.48,57.66C100.254,56.873 101.521,56.863 102.308,57.637Z" style="fill:#fff;"/><path d="M124.009,72.583L122.896,74.245L101.468,59.896L102.58,58.234L124.009,72.583Z" style="fill:#fff;"/><path d="M155.214,40.792C155.875,41.434 155.891,42.492 155.248,43.153L127.568,71.643C126.926,72.304 125.867,72.319 125.207,71.677C124.546,71.034 124.53,69.976 125.173,69.315L152.853,40.826C153.496,40.165 154.554,40.15 155.214,40.792Z" style="fill:#fff;"/></g></g></svg>